<?xml version="1.0" ?><svg viewBox="0 0 512 512" xmlns="http://www.w3.org/2000/svg"><title/><g data-name="/ OUTLINE" id="_OUTLINE"><polygon points="264 72 248 72 248 160 176 160 176 176 264 176 264 72"/><path d="M384,160h48a16.01833,16.01833,0,0,0,16-16V112a16.01833,16.01833,0,0,0-16-16H392V80a16,16,0,0,1,32,0h16a32,32,0,0,0-64,0V98.165A15.99656,15.99656,0,0,0,368,112v32A16.01833,16.01833,0,0,0,384,160Zm0-48h48l.01025,31.99951L432,144H384Z"/><path d="M490.34326,279.02979l-17.373-17.373a24.02666,24.02666,0,0,0-33.94042,0l-7.079,7.079A23.97772,23.97772,0,0,0,392,286.62744v18.74512a7.94834,7.94834,0,0,1-2.34326,5.65723L384,316.68652l-8-8-69.80841,69.80835-6.614-13.22778a23.89344,23.89344,0,0,0-11.05658-10.90063,30.40159,30.40159,0,0,1,8.44915-16.0232l4.28467-4.28467a63.66224,63.66224,0,0,0,16.10248-26.9768A152.07513,152.07513,0,0,0,406.093,192H472a24.02718,24.02718,0,0,0,24-24V40a24.02718,24.02718,0,0,0-24-24H360a39.98767,39.98767,0,0,0-33.08051,17.54028A152.0608,152.0608,0,0,0,256,16c-83.813,0-152,68.187-152,152a151.75164,151.75164,0,0,0,90.64124,139.07666,63.66131,63.66131,0,0,0,16.10388,26.98193l4.28467,4.28467a30.40159,30.40159,0,0,1,8.44915,16.0232,23.89344,23.89344,0,0,0-11.05658,10.90063l-6.61395,13.22778L136,308.68652l-8,8-5.65674-5.65673A7.94834,7.94834,0,0,1,120,305.37256V286.62744a23.97772,23.97772,0,0,0-39.95081-17.89172l-7.079-7.079a24.02666,24.02666,0,0,0-33.94042,0l-17.373,17.373a24.02666,24.02666,0,0,0,0,33.94042l24,24A23.843,23.843,0,0,0,62.62744,344h2.74512a7.94834,7.94834,0,0,1,5.65723,2.34326L84.68652,360l-8,8,80.97022,80.97021A7.94834,7.94834,0,0,1,160,454.62744V496h16V454.62744a23.843,23.843,0,0,0-7.02979-16.9707L99.314,368,136,331.314l61.65674,61.65625A23.843,23.843,0,0,0,214.62744,400h82.74512a23.843,23.843,0,0,0,16.9707-7.02979L376,331.314,412.686,368l-69.65625,69.65674A23.843,23.843,0,0,0,336,454.62744V496h16V454.62744a7.94834,7.94834,0,0,1,2.34326-5.65723L435.31348,368l-8-8,13.65673-13.65674A7.94834,7.94834,0,0,1,446.62744,344h2.74512a23.843,23.843,0,0,0,16.9707-7.02979l24-24A24.02666,24.02666,0,0,0,490.34326,279.02979ZM96,348.68652,82.34326,335.02979A23.843,23.843,0,0,0,65.37256,328H62.62744a7.94834,7.94834,0,0,1-5.65723-2.34326l-24-24a8.00889,8.00889,0,0,1,0-11.31348l17.37305-17.373a8.00889,8.00889,0,0,1,11.31348,0l9.621,9.621a23.98153,23.98153,0,0,0,6.379,22.379l4.68652,4.68653,11.31348-11.31348-4.68653-4.68652a8.00889,8.00889,0,0,1,0-11.31348l1.37305-1.373A8,8,0,0,1,104,286.62744v18.74512a23.843,23.843,0,0,0,7.02979,16.9707L116.68652,328ZM330.7417,153.37988A24.09176,24.09176,0,0,0,336,138.3877V56a24.0275,24.0275,0,0,1,24-24H472a8.00917,8.00917,0,0,1,8,8V168a8.00917,8.00917,0,0,1-8,8H312.64551ZM192,256v32.01733a135.9832,135.9832,0,0,1-26.37616-18.32763l16.0329-16.033-11.31348-11.31348-16.03821,16.03821A135.74269,135.74269,0,0,1,120.25574,176H144V160H120.24164a135.44671,135.44671,0,0,1,34.152-82.293l15.94964,15.94971,11.31348-11.31348L165.70709,66.39355A135.44582,135.44582,0,0,1,248,32.2417V56h16V32.24707a135.89617,135.89617,0,0,1,56.73743,16.12976A40.02243,40.02243,0,0,0,320,56v82.3877a8.02951,8.02951,0,0,1-1.75293,4.99755l-27.19385,33.99219A8.99987,8.99987,0,0,0,298.08057,192H389.8858a135.78035,135.78035,0,0,1-32.2276,66.34473l-16.00146-16.00147-11.31348,11.31348L346.351,269.66455A136.01,136.01,0,0,1,320,288.01855V256a64,64,0,0,0-128,0Zm30.05859,66.74512A47.68523,47.68523,0,0,1,208,288.8042V256a48,48,0,0,1,96,0v32.8042a47.68523,47.68523,0,0,1-14.05859,33.94092l-4.28467,4.28467A46.2757,46.2757,0,0,0,272.6936,352H239.3064a46.2757,46.2757,0,0,0-12.96314-24.97021ZM220.94409,384l5.78882-11.57764A7.95684,7.95684,0,0,1,233.88867,368h44.22266a7.95684,7.95684,0,0,1,7.15576,4.42236L291.05591,384Zm258.0857-82.34326-24,24A7.94834,7.94834,0,0,1,449.37256,328h-2.74512a23.843,23.843,0,0,0-16.9707,7.02979L416,348.68652,395.31348,328l5.65673-5.65674A23.843,23.843,0,0,0,408,305.37256V286.62744a8,8,0,0,1,13.65674-5.65723l1.373,1.373a8.00889,8.00889,0,0,1,0,11.31348l-4.68653,4.68652,11.31348,11.31348,4.68652-4.68653a23.98153,23.98153,0,0,0,6.379-22.379l9.621-9.621a8.00889,8.00889,0,0,1,11.31348,0l17.373,17.373A8.00889,8.00889,0,0,1,479.02979,301.65674Z"/></g></svg>